<svg width="46" height="46" viewBox="0 0 46 46" fill="none" xmlns="http://www.w3.org/2000/svg">
<path d="M20.6643 6.98524C22.0102 5.83825 23.9898 5.83825 25.3357 6.98524L27.625 8.93617C28.2018 9.42768 28.9189 9.72472 29.6743 9.785L32.6726 10.0243C34.4353 10.1649 35.8351 11.5647 35.9757 13.3274L36.215 16.3257C36.2753 17.0811 36.5723 17.7982 37.0638 18.375L39.0148 20.6643C40.1617 22.0102 40.1617 23.9898 39.0148 25.3357L37.0638 27.625C36.5723 28.2018 36.2753 28.9189 36.215 29.6743L35.9757 32.6726C35.8351 34.4353 34.4353 35.8351 32.6726 35.9757L29.6743 36.215C28.9189 36.2753 28.2018 36.5723 27.625 37.0638L25.3357 39.0148C23.9898 40.1617 22.0102 40.1617 20.6643 39.0148L18.375 37.0638C17.7982 36.5723 17.0811 36.2753 16.3257 36.215L13.3274 35.9757C11.5647 35.8351 10.1649 34.4353 10.0243 32.6726L9.785 29.6743C9.72472 28.9189 9.42768 28.2018 8.93617 27.625L6.98524 25.3357C5.83825 23.9898 5.83825 22.0102 6.98524 20.6643L8.93617 18.375C9.42768 17.7982 9.72472 17.0811 9.785 16.3257L10.0243 13.3274C10.1649 11.5647 11.5647 10.1649 13.3274 10.0243L16.3257 9.785C17.0811 9.72472 17.7982 9.42768 18.375 8.93617L20.6643 6.98524Z" stroke="#DD5235" stroke-width="4" stroke-linecap="round" stroke-linejoin="round"/>
<path d="M30.0392 20.6642C30.8203 19.8832 30.8203 18.6168 30.0392 17.8358C29.2582 17.0547 27.9918 17.0547 27.2108 17.8358L30.0392 20.6642ZM21.125 26.75L19.7108 28.1642C20.4918 28.9453 21.7582 28.9453 22.5392 28.1642L21.125 26.75ZM18.7892 21.5858C18.0082 20.8047 16.7418 20.8047 15.9608 21.5858C15.1797 22.3668 15.1797 23.6332 15.9608 24.4142L18.7892 21.5858ZM27.2108 17.8358L19.7108 25.3358L22.5392 28.1642L30.0392 20.6642L27.2108 17.8358ZM22.5392 25.3358L18.7892 21.5858L15.9608 24.4142L19.7108 28.1642L22.5392 25.3358Z" fill="#DD5235"/>
</svg>
