<svg width="46" height="46" viewBox="0 0 46 46" fill="none" xmlns="http://www.w3.org/2000/svg">
<path d="M28.5988 16.3892L23.8508 6.09561C23.5158 5.36917 22.4833 5.36917 22.1482 6.09561L17.4003 16.3892C17.2637 16.6853 16.9831 16.8891 16.6593 16.9275L5.40235 18.2622C4.60792 18.3564 4.28888 19.3383 4.87622 19.8815L13.1988 27.578C13.4382 27.7993 13.5453 28.1292 13.4818 28.449L11.2726 39.5674C11.1167 40.3521 11.9519 40.959 12.65 40.5682L22.5416 35.0313C22.8261 34.8721 23.1729 34.8721 23.4575 35.0313L33.3491 40.5682C34.0471 40.959 34.8824 40.3521 34.7265 39.5674L32.5173 28.449C32.4537 28.1292 32.5609 27.7993 32.8003 27.578L41.1228 19.8815C41.7102 19.3383 41.3911 18.3564 40.5967 18.2622L29.3397 16.9275C29.016 16.8891 28.7354 16.6853 28.5988 16.3892Z" stroke="#DD5235" stroke-width="4" stroke-linecap="round" stroke-linejoin="round"/>
</svg>
