<svg width="24" height="25" viewBox="0 0 24 25" fill="none" xmlns="http://www.w3.org/2000/svg">
<path d="M12.004 7.8864C9.44951 7.8864 7.38904 9.94687 7.38904 12.5014C7.38904 15.0559 9.44951 17.1163 12.004 17.1163C14.5585 17.1163 16.619 15.0559 16.619 12.5014C16.619 9.94687 14.5585 7.8864 12.004 7.8864ZM12.004 15.5017C10.3532 15.5017 9.00368 14.1562 9.00368 12.5014C9.00368 10.8466 10.3492 9.50104 12.004 9.50104C13.6588 9.50104 15.0044 10.8466 15.0044 12.5014C15.0044 14.1562 13.6548 15.5017 12.004 15.5017ZM17.8842 7.69762C17.8842 8.29608 17.4022 8.77405 16.8078 8.77405C16.2093 8.77405 15.7313 8.29207 15.7313 7.69762C15.7313 7.10318 16.2133 6.6212 16.8078 6.6212C17.4022 6.6212 17.8842 7.10318 17.8842 7.69762ZM20.9408 8.79012C20.8725 7.34819 20.5431 6.07094 19.4868 5.01861C18.4345 3.96628 17.1572 3.63693 15.7153 3.56463C14.2292 3.48029 9.77485 3.48029 8.28874 3.56463C6.85083 3.63291 5.57358 3.96227 4.51724 5.01459C3.46089 6.06692 3.13556 7.34417 3.06326 8.7861C2.97891 10.2722 2.97891 14.7265 3.06326 16.2126C3.13154 17.6546 3.46089 18.9318 4.51724 19.9841C5.57358 21.0365 6.84681 21.3658 8.28874 21.4381C9.77485 21.5225 14.2292 21.5225 15.7153 21.4381C17.1572 21.3698 18.4345 21.0405 19.4868 19.9841C20.5391 18.9318 20.8685 17.6546 20.9408 16.2126C21.0251 14.7265 21.0251 10.2762 20.9408 8.79012ZM19.0209 17.8072C18.7076 18.5944 18.1011 19.2009 17.3098 19.5182C16.125 19.9882 13.3134 19.8797 12.004 19.8797C10.6946 19.8797 7.87906 19.9841 6.6982 19.5182C5.91097 19.2049 5.30447 18.5984 4.98717 17.8072C4.51724 16.6223 4.62568 13.8108 4.62568 12.5014C4.62568 11.192 4.52125 8.37641 4.98717 7.19556C5.30046 6.40832 5.90695 5.80183 6.6982 5.48453C7.88307 5.01459 10.6946 5.12304 12.004 5.12304C13.3134 5.12304 16.129 5.01861 17.3098 5.48453C18.0971 5.79781 18.7036 6.40431 19.0209 7.19556C19.4908 8.38043 19.3823 11.192 19.3823 12.5014C19.3823 13.8108 19.4908 16.6263 19.0209 17.8072Z" fill="#FAFAFF"/>
</svg>
