<svg width="25" height="18" viewBox="0 0 25 18" fill="none" xmlns="http://www.w3.org/2000/svg">
<path fill-rule="evenodd" clip-rule="evenodd" d="M8.47634 7.37624L9.82837 10.5709C10.1546 11.3418 10.907 11.8456 11.744 11.8537L14.5349 11.8807L10.6596 2.27521L10.6586 2.27296C10.656 2.26657 10.653 2.25935 10.6497 2.2514C10.6226 2.18555 10.5747 2.06907 10.4963 1.95077C10.3534 1.73527 10.1589 1.49391 9.90682 1.32488C9.67725 1.17095 9.45964 1.06978 9.16321 1.00853C9.04761 0.984647 8.96827 0.968265 8.85795 0.968265C8.84833 0.968265 8.83667 0.968108 8.82332 0.967927C8.74041 0.966806 8.59202 0.964799 8.45638 0.99411C8.19964 1.03889 7.99925 1.14359 7.82317 1.24985L7.81602 1.25416L7.80909 1.25881C7.59706 1.40099 7.38849 1.56385 7.21962 1.81863L7.21565 1.82463L7.21192 1.83079C6.75143 2.59172 5.07742 5.39801 3.53452 8.00647C3.53452 8.00647 1.01714 11.9699 0.655405 12.6033C0.156888 13.4762 0.0214572 13.9037 0.00205952 14.4869C-0.0259298 15.3281 0.232431 16.0488 0.712115 16.5749C1.19072 17.0998 1.86773 17.4069 2.63447 17.4628L2.64718 17.4637H15.2902C16.7812 17.4637 17.9599 17.2858 18.9761 16.9062C19.9952 16.5255 20.8304 15.9496 21.6437 15.1827L21.6461 15.1804C23.189 13.6975 24.1479 11.5963 24.2165 9.38965C24.285 7.25389 23.5323 5.15481 22.1966 3.5702L22.194 3.56707L22.1913 3.56401C21.0767 2.30285 19.0566 1.04572 15.8619 0.673434C15.1694 0.588566 14.2595 0.555418 13.5315 0.543009C13.1655 0.536768 12.8419 0.53573 12.6098 0.53625C12.4938 0.53651 11.7276 0.546746 11.6632 0.547333L11.9313 1.05294C12.0576 1.29112 12.3679 2.05571 12.6439 2.75607C12.9751 3.59687 13.7919 4.10498 14.6551 4.16194C16.8848 4.30908 18.3 5.10208 19.1527 6.07552C20.0108 7.05519 20.3262 8.24831 20.2981 9.23635L20.2981 9.23714C20.2676 10.4022 19.7797 11.5012 18.9645 12.2604L18.9621 12.2625L18.9599 12.2647C18.1886 13.0094 17.2359 13.4878 16.1484 13.4878H4.83761C5.39782 12.5561 6.61762 10.5021 8.47634 7.37624Z" fill="#DD5235"/>
</svg>
