<svg width="135" height="20" viewBox="0 0 135 20" fill="none" xmlns="http://www.w3.org/2000/svg">
<path d="M42.1683 18.9864H46.8978V5.17613H42.1683V6.87948C40.7573 5.64783 38.5886 4.83546 36.263 4.83546C31.3768 4.83546 28.189 7.69185 28.189 12.1206C28.189 16.4445 31.4552 19.3533 36.2369 19.3533C38.5886 19.3533 40.7312 18.5409 42.1683 17.3092V18.9864ZM42.1683 12.0944C42.1683 14.5315 40.4177 16.1824 37.5434 16.1824C34.5646 16.1824 32.8139 14.6101 32.8139 12.1206C32.8139 9.52623 34.5124 8.00632 37.5434 8.00632C40.4177 8.00632 42.1683 9.63105 42.1683 12.0944Z" fill="#2D2926"/>
<path d="M63.0303 18.9864H67.7597V0.275717H63.0303V6.87948C61.6192 5.64783 59.4505 4.83546 57.1249 4.83546C52.2648 4.83546 49.0509 7.71806 49.0509 12.1206C49.0509 16.4969 52.2648 19.3533 57.0988 19.3533C59.4505 19.3533 61.5931 18.5409 63.0303 17.3092V18.9864ZM63.0303 12.0944C63.0303 14.5315 61.2796 16.1824 58.4053 16.1824C55.4004 16.1824 53.6758 14.6625 53.6758 12.1206C53.6758 9.52623 55.4004 8.00632 58.4053 8.00632C61.2796 8.00632 63.0303 9.63105 63.0303 12.0944Z" fill="#2D2926"/>
<path d="M74.9284 19.0126V0.275717H70.1989V19.0126H74.9284Z" fill="#2D2926"/>
<path d="M95.8121 12.1206C95.8121 7.74426 92.1017 4.83546 86.4315 4.83546C80.7875 4.83546 77.0771 7.74426 77.0771 12.1206C77.0771 16.4707 80.7875 19.3533 86.4315 19.3533C92.1017 19.3533 95.8121 16.4707 95.8121 12.1206ZM91.1871 12.1206C91.1871 14.6363 89.4103 16.1824 86.4577 16.1824C83.4528 16.1824 81.7021 14.6363 81.7021 12.1206C81.7021 9.55244 83.4528 8.00632 86.4577 8.00632C89.4103 8.00632 91.1871 9.55244 91.1871 12.1206Z" fill="#2D2926"/>
<path d="M116.413 12.1206C116.413 7.74426 112.703 4.83546 107.032 4.83546C101.388 4.83546 97.678 7.74426 97.678 12.1206C97.678 16.4707 101.388 19.3533 107.032 19.3533C112.703 19.3533 116.413 16.4707 116.413 12.1206ZM111.788 12.1206C111.788 14.6363 110.011 16.1824 107.059 16.1824C104.054 16.1824 102.303 14.6363 102.303 12.1206C102.303 9.55244 104.054 8.00632 107.059 8.00632C110.011 8.00632 111.788 9.55244 111.788 12.1206Z" fill="#2D2926"/>
<path d="M129.278 10.26L134.686 5.17613H129.251L122.928 11.0724V0.249512H118.199V19.0126H122.928V16.13L126.273 13.2474L129.905 19.0126H135L129.278 10.26Z" fill="#2D2926"/>
<path fill-rule="evenodd" clip-rule="evenodd" d="M8.47634 9.66335L9.82837 12.8581C10.1546 13.6289 10.907 14.1328 11.744 14.1408L14.5349 14.1678L10.6596 4.56232L10.6586 4.56007C10.656 4.55368 10.653 4.54646 10.6497 4.53851C10.6226 4.47266 10.5747 4.35618 10.4963 4.23788C10.3534 4.02238 10.1589 3.78102 9.90682 3.61199C9.67725 3.45806 9.45964 3.35689 9.16321 3.29564C9.04761 3.27176 8.96827 3.25537 8.85795 3.25537C8.84833 3.25537 8.83667 3.25522 8.82332 3.25504C8.74041 3.25392 8.59202 3.25191 8.45638 3.28122C8.19964 3.326 7.99925 3.43069 7.82317 3.53696L7.81602 3.54127L7.80909 3.54592C7.59706 3.6881 7.38849 3.85096 7.21962 4.10574L7.21565 4.11174L7.21192 4.1179C6.75143 4.87883 5.07742 7.68512 3.53452 10.2936C3.53452 10.2936 1.01714 14.257 0.655405 14.8904C0.156888 15.7633 0.0214572 16.1908 0.00205952 16.774C-0.0259298 17.6152 0.232431 18.336 0.712115 18.862C1.19072 19.3869 1.86773 19.694 2.63447 19.7499L2.64718 19.7508H15.2902C16.7812 19.7508 17.9599 19.5729 18.9761 19.1933C19.9952 18.8126 20.8304 18.2367 21.6437 17.4698L21.6461 17.4675C23.189 15.9846 24.1479 13.8834 24.2165 11.6768C24.285 9.541 23.5323 7.44192 22.1966 5.85731L22.194 5.85418L22.1913 5.85111C21.0767 4.58996 19.0566 3.33283 15.8619 2.96054C15.1694 2.87568 14.2595 2.84253 13.5315 2.83012C13.1655 2.82388 12.8419 2.82284 12.6098 2.82336C12.4938 2.82362 11.7276 2.83385 11.6632 2.83444L11.9313 3.34005C12.0576 3.57823 12.3679 4.34282 12.6439 5.04318C12.9751 5.88398 13.7919 6.39209 14.6551 6.44905C16.8848 6.59619 18.3 7.38919 19.1527 8.36263C20.0108 9.3423 20.3262 10.5354 20.2981 11.5235L20.2981 11.5242C20.2676 12.6894 19.7797 13.7883 18.9645 14.5475L18.9621 14.5496L18.9599 14.5518C18.1886 15.2965 17.2359 15.7749 16.1484 15.7749H4.83761C5.39782 14.8432 6.61762 12.7892 8.47634 9.66335Z" fill="#DD5235"/>
</svg>
