<svg width="135" height="20" viewBox="0 0 135 20" fill="none" xmlns="http://www.w3.org/2000/svg">
<path d="M42.1683 18.7369H46.8978V4.92662H42.1683V6.62997C40.7573 5.39832 38.5886 4.58595 36.263 4.58595C31.3768 4.58595 28.189 7.44234 28.189 11.8711C28.189 16.195 31.4552 19.1038 36.2369 19.1038C38.5886 19.1038 40.7312 18.2914 42.1683 17.0597V18.7369ZM42.1683 11.8449C42.1683 14.282 40.4177 15.9329 37.5434 15.9329C34.5646 15.9329 32.8139 14.3606 32.8139 11.8711C32.8139 9.27672 34.5124 7.75681 37.5434 7.75681C40.4177 7.75681 42.1683 9.38154 42.1683 11.8449Z" fill="white"/>
<path d="M63.0303 18.7369H67.7597V0.0262051H63.0303V6.62997C61.6192 5.39832 59.4505 4.58595 57.1249 4.58595C52.2648 4.58595 49.0509 7.46855 49.0509 11.8711C49.0509 16.2474 52.2648 19.1038 57.0988 19.1038C59.4505 19.1038 61.5931 18.2914 63.0303 17.0597V18.7369ZM63.0303 11.8449C63.0303 14.282 61.2796 15.9329 58.4053 15.9329C55.4004 15.9329 53.6758 14.413 53.6758 11.8711C53.6758 9.27672 55.4004 7.75681 58.4053 7.75681C61.2796 7.75681 63.0303 9.38154 63.0303 11.8449Z" fill="white"/>
<path d="M74.9284 18.7631V0.0262051H70.1989V18.7631H74.9284Z" fill="white"/>
<path d="M95.8121 11.8711C95.8121 7.49475 92.1017 4.58595 86.4315 4.58595C80.7875 4.58595 77.0771 7.49475 77.0771 11.8711C77.0771 16.2212 80.7875 19.1038 86.4315 19.1038C92.1017 19.1038 95.8121 16.2212 95.8121 11.8711ZM91.1871 11.8711C91.1871 14.3868 89.4103 15.9329 86.4577 15.9329C83.4528 15.9329 81.7021 14.3868 81.7021 11.8711C81.7021 9.30293 83.4528 7.75681 86.4577 7.75681C89.4103 7.75681 91.1871 9.30293 91.1871 11.8711Z" fill="white"/>
<path d="M116.413 11.8711C116.413 7.49475 112.703 4.58595 107.032 4.58595C101.388 4.58595 97.678 7.49475 97.678 11.8711C97.678 16.2212 101.388 19.1038 107.032 19.1038C112.703 19.1038 116.413 16.2212 116.413 11.8711ZM111.788 11.8711C111.788 14.3868 110.011 15.9329 107.059 15.9329C104.054 15.9329 102.303 14.3868 102.303 11.8711C102.303 9.30293 104.054 7.75681 107.059 7.75681C110.011 7.75681 111.788 9.30293 111.788 11.8711Z" fill="white"/>
<path d="M129.278 10.0105L134.686 4.92662H129.251L122.928 10.8228V0H118.199V18.7631H122.928V15.8805L126.273 12.9979L129.905 18.7631H135L129.278 10.0105Z" fill="white"/>
<path fill-rule="evenodd" clip-rule="evenodd" d="M8.47634 9.41388L9.82837 12.6086C10.1546 13.3794 10.907 13.8833 11.744 13.8914L14.5349 13.9184L10.6596 4.31285L10.6586 4.3106C10.656 4.30421 10.653 4.297 10.6497 4.28905C10.6226 4.2232 10.5747 4.10672 10.4963 3.98842C10.3534 3.77291 10.1589 3.53155 9.90682 3.36253C9.67725 3.20859 9.45964 3.10742 9.16321 3.04618C9.04761 3.02229 8.96827 3.00591 8.85795 3.00591C8.84833 3.00591 8.83667 3.00575 8.82332 3.00557C8.74041 3.00445 8.59202 3.00244 8.45638 3.03175C8.19964 3.07654 7.99925 3.18123 7.82317 3.28749L7.81602 3.2918L7.80909 3.29646C7.59706 3.43863 7.38849 3.6015 7.21962 3.85628L7.21565 3.86228L7.21192 3.86843C6.75143 4.62936 5.07742 7.43566 3.53452 10.0441C3.53452 10.0441 1.01714 14.0076 0.655405 14.641C0.156888 15.5139 0.0214572 15.9414 0.00205952 16.5245C-0.0259298 17.3658 0.232431 18.0865 0.712115 18.6125C1.19072 19.1374 1.86773 19.4445 2.63447 19.5004L2.64718 19.5014H15.2902C16.7812 19.5014 17.9599 19.3235 18.9761 18.9438C19.9952 18.5631 20.8304 17.9872 21.6437 17.2203L21.6461 17.218C23.189 15.7351 24.1479 13.6339 24.2165 11.4273C24.285 9.29153 23.5323 7.19245 22.1966 5.60785L22.194 5.60472L22.1913 5.60165C21.0767 4.3405 19.0566 3.08336 15.8619 2.71108C15.1694 2.62621 14.2595 2.59306 13.5315 2.58065C13.1655 2.57441 12.8419 2.57337 12.6098 2.57389C12.4938 2.57415 11.7276 2.58439 11.6632 2.58498L11.9313 3.09059C12.0576 3.32876 12.3679 4.09335 12.6439 4.79372C12.9751 5.63452 13.7919 6.14263 14.6551 6.19959C16.8848 6.34672 18.3 7.13973 19.1527 8.11316C20.0108 9.09284 20.3262 10.286 20.2981 11.274L20.2981 11.2748C20.2676 12.4399 19.7797 13.5388 18.9645 14.298L18.9621 14.3002L18.9599 14.3024C18.1886 15.0471 17.2359 15.5254 16.1484 15.5254H4.83761C5.39782 14.5937 6.61762 12.5397 8.47634 9.41388Z" fill="#DD5235"/>
</svg>
