<svg width="1017" height="111" viewBox="0 0 1017 111" fill="none" xmlns="http://www.w3.org/2000/svg">
<path d="M710.946 58.3183C708.236 39.1984 692.428 26.5522 670.297 26.5522C645.456 26.5522 627.993 44.016 627.993 68.4051C627.993 92.6437 645.457 109.957 670.448 109.957C693.783 109.957 710.193 96.1064 711.849 75.6315H689.869C688.815 85.4173 681.89 91.7404 670.749 91.7404C658.404 91.7404 650.425 82.2557 650.425 68.4051C650.425 54.2534 658.253 44.7688 670.749 44.7688C680.685 44.7688 687.46 49.8875 688.966 58.3183H710.946Z" fill="#101820"/>
<path d="M742.753 108V0.356445H719.869V108H742.753Z" fill="#101820"/>
<path d="M838.32 68.4051C838.32 44.016 820.253 26.5522 794.509 26.5522C768.916 26.5522 750.85 44.016 750.85 68.4051C750.85 92.6437 768.916 109.957 794.509 109.957C820.253 109.957 838.32 92.6437 838.32 68.4051ZM815.888 68.4051C815.888 82.2557 807.457 91.7404 794.66 91.7404C781.713 91.7404 773.282 82.2557 773.282 68.4051C773.282 54.2534 781.713 44.7688 794.66 44.7688C807.457 44.7688 815.888 54.2534 815.888 68.4051Z" fill="#101820"/>
<path d="M921.523 28.5093H899.091V64.1897C899.091 81.9546 892.166 89.0305 882.982 89.0305C874.1 89.0305 868.53 82.2557 868.53 71.115V28.5093H846.098V76.5348C846.098 99.7196 855.733 109.957 874.853 109.957C884.789 109.957 893.069 105.139 899.091 97.6119V108H921.523V28.5093Z" fill="#101820"/>
<path d="M993.867 107.849H1016.75V0.356445H993.867V38.2951C987.394 31.2192 978.21 26.5522 967.22 26.5522C945.39 26.5522 929.432 44.016 929.432 68.4051C929.432 92.6437 945.39 109.957 967.22 109.957C978.21 109.957 987.394 105.29 993.867 98.2141V107.849ZM993.867 68.2546C993.867 82.2558 986.039 91.7404 973.242 91.7404C960.295 91.7404 951.864 82.2557 951.864 68.4051C951.864 54.2534 960.295 44.7688 973.242 44.7688C986.039 44.7688 993.867 54.1029 993.867 68.2546Z" fill="#101820"/>
<path d="M81.052 108.458H108.414V28.56H81.052V38.4146C72.8888 31.289 60.3416 26.5891 46.8875 26.5891C18.6186 26.5891 0.175781 43.1145 0.175781 68.7363C0.175781 93.7517 19.0721 110.58 46.7363 110.58C60.3416 110.58 72.7376 105.88 81.052 98.7548V108.458ZM81.052 68.5847C81.052 82.6843 70.9236 92.2357 54.2948 92.2357C37.0614 92.2357 26.933 83.1391 26.933 68.7363C26.933 53.7271 36.759 44.9338 54.2948 44.9338C70.9236 44.9338 81.052 54.3335 81.052 68.5847Z" fill="#DD5235"/>
<path d="M201.746 108.458H229.108V0.209224H201.746V38.4146C193.583 31.289 181.036 26.5891 167.582 26.5891C139.464 26.5891 120.87 43.2661 120.87 68.7363C120.87 94.055 139.464 110.58 167.431 110.58C181.036 110.58 193.432 105.88 201.746 98.7548V108.458ZM201.746 68.5847C201.746 82.6843 191.618 92.2357 174.989 92.2357C157.605 92.2357 147.627 83.4424 147.627 68.7363C147.627 53.7271 157.605 44.9338 174.989 44.9338C191.618 44.9338 201.746 54.3335 201.746 68.5847Z" fill="#DD5235"/>
<path d="M270.581 108.609V0.209224H243.22V108.609H270.581Z" fill="#DD5235"/>
<path d="M391.402 68.7363C391.402 43.4177 369.936 26.5891 337.132 26.5891C304.479 26.5891 283.013 43.4177 283.013 68.7363C283.013 93.9034 304.479 110.58 337.132 110.58C369.936 110.58 391.402 93.9034 391.402 68.7363ZM364.645 68.7363C364.645 83.2908 354.365 92.2357 337.283 92.2357C319.898 92.2357 309.77 83.2908 309.77 68.7363C309.77 53.8787 319.898 44.9338 337.283 44.9338C354.365 44.9338 364.645 53.8787 364.645 68.7363Z" fill="#DD5235"/>
<path d="M510.586 68.7363C510.586 43.4177 489.12 26.5891 456.316 26.5891C423.663 26.5891 402.197 43.4177 402.197 68.7363C402.197 93.9034 423.663 110.58 456.316 110.58C489.12 110.58 510.586 93.9034 510.586 68.7363ZM483.829 68.7363C483.829 83.2908 473.55 92.2357 456.467 92.2357C439.083 92.2357 428.954 83.2908 428.954 68.7363C428.954 53.8787 439.083 44.9338 456.467 44.9338C473.55 44.9338 483.829 53.8787 483.829 68.7363Z" fill="#DD5235"/>
<path d="M585.013 57.9721L616.305 28.56H584.862L548.278 62.672V0.0576172H520.916V108.609H548.278V91.9324L567.628 75.2555L588.641 108.609H618.119L585.013 57.9721Z" fill="#DD5235"/>
</svg>
