<svg width="24" height="25" viewBox="0 0 24 25" fill="none" xmlns="http://www.w3.org/2000/svg">
<path d="M19.1498 9.14477C19.1612 9.30466 19.1612 9.46459 19.1612 9.62448C19.1612 14.5014 15.4493 20.1207 8.66499 20.1207C6.57488 20.1207 4.63326 19.5153 3 18.4646C3.29697 18.4989 3.58247 18.5103 3.89086 18.5103C5.61546 18.5103 7.20305 17.9278 8.47083 16.9342C6.84899 16.8999 5.48985 15.8377 5.02156 14.3758C5.25001 14.41 5.47842 14.4329 5.71829 14.4329C6.0495 14.4329 6.38074 14.3871 6.6891 14.3072C4.99875 13.9646 3.73094 12.4798 3.73094 10.6867V10.641C4.22204 10.9151 4.79315 11.0864 5.39844 11.1092C4.40478 10.4468 3.75379 9.31609 3.75379 8.03689C3.75379 7.35162 3.9365 6.72344 4.25631 6.17522C6.07232 8.4138 8.80203 9.87571 11.8629 10.0356C11.8058 9.76152 11.7716 9.47601 11.7716 9.19047C11.7716 7.15745 13.4162 5.50137 15.4607 5.50137C16.5228 5.50137 17.4822 5.9468 18.1561 6.66635C18.9898 6.50646 19.7893 6.19807 20.4975 5.77549C20.2233 6.63211 19.6409 7.35165 18.8756 7.80848C19.618 7.72857 20.3376 7.52294 21 7.23743C20.4975 7.96837 19.8693 8.61936 19.1498 9.14477Z" fill="#FAFAFF"/>
</svg>
