<svg width="24" height="25" viewBox="0 0 24 25" fill="none" xmlns="http://www.w3.org/2000/svg">
<path d="M20.6239 17.4449C20.4169 18.2544 19.8069 18.8919 19.0325 19.1082C17.6288 19.5014 12 19.5014 12 19.5014C12 19.5014 6.37127 19.5014 4.96752 19.1082C4.19308 18.8919 3.58314 18.2544 3.37613 17.4449C3 15.9777 3 12.9166 3 12.9166C3 12.9166 3 9.85543 3.37613 8.38824C3.58314 7.57878 4.19308 6.96783 4.96752 6.75149C6.37127 6.35836 12 6.35836 12 6.35836C12 6.35836 17.6287 6.35836 19.0325 6.75149C19.8069 6.96783 20.4169 7.57878 20.6239 8.38824C21 9.85543 21 12.9166 21 12.9166C21 12.9166 21 15.9777 20.6239 17.4449ZM10.1591 10.1373V15.6959L14.8636 12.9165L10.1591 10.1373Z" fill="#FAFAFF"/>
</svg>
