<svg width="383" height="452" viewBox="0 0 383 452" fill="none" xmlns="http://www.w3.org/2000/svg">
<path fill-rule="evenodd" clip-rule="evenodd" d="M212.136 2.27396C203.403 6.31764 198.197 13.9203 192.533 30.9076C188.42 43.2442 182.973 52.3009 176.673 57.2806C174.441 59.0447 167.257 62.8472 160.708 65.7291C146.443 72.0073 133.356 80.4665 128.583 86.4952C121.176 95.8488 108.193 122.698 108.193 128.663C108.193 129.67 109.664 130.985 111.46 131.584L114.727 132.673V148.018C114.727 161.082 115.087 164.079 117.149 168.203L119.57 173.046L62.5047 183.462C31.1175 189.191 4.23481 194.152 2.76535 194.488L0.0925293 195.098V228.661V262.224L13.4554 265.655L26.8172 269.086L28.8046 289.874C29.8963 301.308 30.8323 311.058 30.8846 311.542C30.9357 312.025 36.1911 315.047 42.5607 318.257C53.6772 323.858 53.9992 324.129 50.5792 325C48.6191 325.499 37.9278 328.418 26.8207 331.486L6.62609 337.067L6.30892 365.499L5.99056 393.93L121.838 422.801L237.684 451.673L267.675 441.574C308.499 427.827 374.013 405.231 378.742 403.265L382.603 401.66L382.585 378.732C382.574 366.121 382.174 355.269 381.694 354.616C381.214 353.963 378.901 352.542 376.556 351.458C372.895 349.768 372.355 349.011 372.737 346.113C374.118 335.664 376.28 290.304 375.44 289.417C374.891 288.84 364.488 285.825 352.323 282.718C340.156 279.612 329.965 276.833 329.675 276.545C329.387 276.255 339.228 273.201 351.546 269.758C363.865 266.315 374.543 263.128 375.275 262.676C376.37 262 381.415 225.03 381.415 217.69C381.415 215.986 376.396 214.029 354.984 207.383C340.446 202.87 328.064 198.756 327.467 198.24C326.832 197.692 330.274 182.044 335.763 160.513C340.924 140.279 344.875 123.455 344.544 123.125C344.215 122.794 329.32 121.557 311.445 120.372L278.946 118.22L275.769 106.935C274.02 100.728 271.882 94.3129 271.016 92.6795C267.434 85.925 260.542 78.1417 254.208 73.6989C246.264 68.1275 245.918 67.0251 247.4 51.9849C250.014 25.4265 244.335 6.74292 232.091 1.62654C226.717 -0.618627 217.756 -0.327587 212.136 2.27396ZM238.926 29.9192L242.744 31.2497L242.054 39.4749C240.968 52.4303 234.994 59.9582 225.797 59.9582C212.089 59.9582 208.626 44.8455 219.44 32.2119C223.73 27.1989 223.942 27.1063 229.466 27.8392C232.569 28.2514 236.826 29.1875 238.926 29.9192ZM223.422 36.2532C223.422 37.2333 223.632 38.0351 223.888 38.0351C224.145 38.0351 224.663 37.2333 225.04 36.2532C225.415 35.2732 225.205 34.4714 224.573 34.4714C223.94 34.4714 223.422 35.2732 223.422 36.2532ZM233.115 39.4333C232.999 41.3744 232.116 42.8058 230.846 43.1099C228.887 43.578 228.891 43.6611 230.897 44.5319C233.781 45.7839 234.367 44.9132 233.793 40.228C233.389 36.9387 233.272 36.8021 233.115 39.4333ZM236.489 40.411C236.489 41.0643 237.023 41.5989 237.677 41.5989C238.33 41.5989 238.865 41.0643 238.865 40.411C238.865 39.7576 238.33 39.223 237.677 39.223C237.023 39.223 236.489 39.7576 236.489 40.411ZM221.046 46.6012C221.046 47.6098 221.936 49.1695 223.022 50.0664C224.83 51.5572 224.867 51.4432 223.455 48.7264C221.385 44.7445 221.046 44.444 221.046 46.6012ZM179.125 71.7127C183.006 75.8609 189.315 83.7463 193.147 89.2345C210.813 114.541 219.323 123.565 225.523 123.565C229.772 123.565 236.139 116.917 238.865 109.631C240.235 105.968 241.883 98.6488 242.526 93.3697C243.17 88.0893 244.495 80.9583 245.474 77.5216L247.254 71.2731L250.961 73.1904C256.543 76.0771 265.618 85.6957 268.923 92.2269C271.908 98.1285 276.878 112.961 276.878 115.969C276.878 117.211 275.002 117.626 269.387 117.626H261.896L253.567 152.966L245.239 188.307L218.59 189.096C183.675 190.131 177.98 190.657 168.777 193.701C159.999 196.607 145.7 203.023 138.162 207.44L133.067 210.426L135.777 215.261C139.213 221.394 147.15 228.415 154.976 232.243C161.672 235.52 180.306 240.064 199.742 243.159L212.293 245.157L212.396 266.032C212.511 289.309 214.064 305.492 217.692 321.207C219.437 328.767 220.451 331.289 221.27 330.116C222.21 328.775 222.328 328.801 221.928 330.264C221.661 331.244 220.685 332.045 219.759 332.045C217.721 332.045 214.732 320.764 212.053 302.96C210.726 294.138 210.288 284.362 210.561 269.68L210.948 248.891L206.197 248.621C155.797 245.766 127.275 223.523 127.214 187.023L127.2 178.612L134.625 180.222C140.568 181.512 145.129 181.575 157.492 180.54C184.284 178.299 195.421 177.604 198.219 178.001C199.814 178.228 202.094 180.226 203.752 182.851C206.019 186.443 207.29 187.318 210.244 187.318C212.265 187.318 213.918 186.807 213.918 186.182C213.918 185.553 214.63 185.637 215.512 186.37C219.33 189.538 219.841 182.167 216.21 176.292C213.017 171.124 208.955 168.313 199.576 164.78C195.377 163.198 186.592 159.218 180.055 155.936C173.517 152.654 165.9 149.289 163.128 148.458C160.355 147.628 158.086 146.364 158.086 145.651C158.086 144.937 158.956 140.077 160.016 134.851C162.829 121.008 162.859 96.2729 160.073 88.2604C157.861 81.8932 152.427 76.026 148.788 76.0759C147.661 76.0913 148.434 76.9074 150.577 77.9647C159.426 82.3291 162.358 99.6811 159.095 128.381C158.131 136.852 157.215 140.605 155.999 141.072C155.048 141.436 149.918 140.807 144.596 139.672C134.731 137.569 109.381 129.798 109.381 128.879C109.381 126.975 116.155 111.042 120.732 102.182C128.546 87.0511 135.513 80.4866 153.378 71.4204C161.235 67.4326 168.655 64.1694 169.867 64.1694C171.078 64.1694 175.244 67.5633 179.125 71.7127ZM307.17 121.904C325.464 123.012 340.921 124.354 341.519 124.888C342.159 125.46 338.764 140.973 333.239 162.725L323.872 199.592L319.679 199.597C317.373 199.601 299.449 200.689 279.848 202.016L244.21 204.428L218.373 199.371C200.82 195.937 192.536 193.829 192.536 192.796C192.536 191.011 192.841 190.994 199.069 192.433C207.578 194.399 242.864 200.74 243.235 200.37C243.433 200.172 247.889 182.408 253.139 160.896C258.387 139.384 262.941 121.055 263.26 120.166C263.679 118.994 265.226 118.733 268.874 119.219C271.643 119.588 288.876 120.796 307.17 121.904ZM147.738 141.496C155.208 142.752 156.898 143.431 156.898 145.18C156.898 146.978 155.879 147.324 150.581 147.324C144.756 147.324 131.105 150.437 132.187 151.518C132.445 151.777 135.304 151.168 138.541 150.164C142.462 148.948 147.454 148.499 153.508 148.816C161.954 149.259 163.917 149.931 181.497 158.406C191.897 163.418 200.935 167.518 201.584 167.518C204.682 167.518 213.676 174.707 215.569 178.697C218.57 185.019 217.235 186.74 213.915 180.833C212.369 178.083 210.669 175.834 210.136 175.834C208.846 175.834 208.879 176.044 210.964 181.035C213.399 186.861 212.179 186.491 209.108 180.47C206.394 175.15 204.805 174.767 206.757 179.904C208.725 185.077 208.157 186.238 205.662 182.147C201.714 175.67 200.383 175.429 178.442 177.205C148.985 179.589 132.503 179.336 126.606 176.41C118.038 172.158 114.196 159.911 115.86 142.154L116.676 133.445L127.626 136.701C133.649 138.492 142.7 140.65 147.738 141.496ZM299.535 155.206C296.322 159.29 296.417 162.925 299.822 166.124C303.636 169.705 308.206 169.506 309.949 165.681C311.836 161.54 311.678 157.856 309.478 154.716C306.972 151.136 302.564 151.353 299.535 155.206ZM244.072 193.356C242.652 199.33 242.82 199.314 222.828 195.343C201.322 191.07 201.851 190.54 227.899 190.267L244.849 190.089L244.072 193.356ZM191.348 193.486C191.348 195.418 194.613 196.341 217.185 200.796C231.396 203.599 244.969 206.862 247.35 208.048C252.944 210.832 259.494 218.527 261.244 224.37C264.234 234.347 262.786 243.349 250.183 293.141C245.924 309.966 241.895 325.675 241.227 328.05C240.073 332.163 239.714 332.408 233.741 333.154C225.6 334.172 223.654 333.307 222.705 328.25C222.129 325.176 221.63 324.508 220.795 325.691C220.012 326.802 219.874 326.333 220.345 324.161C220.718 322.439 220.179 315.489 219.146 308.718C217.247 296.256 216.401 266.946 217.474 250.726L218.059 241.87L204.407 239.177C177.683 233.907 162.166 230.234 156.671 227.88C151.297 225.579 137.891 213.095 137.891 210.392C137.891 207.776 166.062 195.8 178.652 193.064C189.152 190.78 191.348 190.854 191.348 193.486ZM329.156 205.262C341.548 217.653 338.324 236.139 312.636 299.972L303.553 322.542L298.828 322.427C296.229 322.363 292.136 321.471 289.733 320.443L285.362 318.576L285.918 309.274C286.9 292.806 290.108 271.985 294.112 256.081C296.259 247.553 297.772 240.174 297.474 239.685C297.176 239.195 296.087 238.794 295.052 238.794C292.755 238.794 278.545 234.619 270.047 231.448C265.96 229.921 263.801 228.433 263.784 227.126C263.729 223.211 257.189 213.281 252.136 209.439L246.996 205.532L252.73 205.44C257.128 205.369 293.324 203.034 322.456 200.939C323.676 200.852 326.691 202.797 329.156 205.262ZM25.9049 202.686C25.5105 203.08 24.4853 203.123 23.6288 202.78C22.6808 202.401 22.9624 202.119 24.3463 202.062C25.5984 202.011 26.2992 202.291 25.9049 202.686ZM71.1456 213.523C94.2174 219.227 112.574 224.068 111.938 224.281C110.683 224.699 28.5551 204.693 27.5988 203.737C26.4085 202.545 30.1481 203.387 71.1456 213.523ZM149.288 225.033C155.865 230.055 161.115 231.853 184.476 237.083C202.888 241.205 198.495 241.571 178.875 237.549C166.416 234.996 155.876 231.508 150.414 228.133C145.152 224.881 135.515 214.412 135.515 211.946C135.515 210.724 137.151 212.085 139.704 215.427C142.007 218.445 146.321 222.767 149.288 225.033ZM380.227 218.73C380.227 220.913 375.18 260.742 374.853 261.134C374.583 261.458 357.708 266.281 333.115 273.063L324.611 275.408L326.297 270.465L327.984 265.522L343.087 262.819C351.394 261.333 358.739 259.559 359.409 258.874C360.252 258.014 359.713 257.822 357.657 258.248C336.548 262.627 330.01 263.811 329.541 263.342C329.233 263.034 329.61 260.687 330.377 258.126L331.773 253.469L346.117 250.705C363.35 247.385 372.489 244.99 368.5 244.839C366.951 244.781 358.455 246.349 349.62 248.324C340.786 250.3 333.386 251.746 333.177 251.537C332.968 251.327 333.577 248.563 334.531 245.395C335.485 242.227 336.838 236.342 337.539 232.32L338.813 225.004L356.846 221.34C377.225 217.199 380.227 216.863 380.227 218.73ZM61.2704 225.727C64.713 226.602 64.6726 226.639 60.0825 226.78C47.6295 227.166 40.4818 231.932 40.4818 239.85C40.4818 251.135 47.3409 258.861 61.2704 263.266C65.1205 264.484 65.4424 264.784 62.968 264.848C58.4016 264.967 47.5844 258.962 43.8318 254.225C38.4683 247.455 37.2733 236.67 41.1601 230.115C43.6619 225.895 53.5003 223.749 61.2704 225.727ZM117.375 225.256C116.98 225.651 115.955 225.693 115.099 225.35C114.151 224.971 114.432 224.69 115.816 224.632C117.068 224.581 117.769 224.862 117.375 225.256ZM122.126 226.444C121.732 226.838 120.707 226.881 119.85 226.538C118.902 226.159 119.184 225.877 120.568 225.82C121.82 225.769 122.521 226.05 122.126 226.444ZM93.9573 231.49C99.9527 234.676 106.253 244.733 102.254 244.733C101.6 244.733 101.066 243.453 101.066 241.887C101.066 238.417 94.379 232.213 89.4812 231.136C84.9386 230.14 79.8852 232.159 78.5392 235.509C77.9013 237.096 77.4274 237.455 77.3822 236.386C77.3418 235.387 78.1401 233.383 79.157 231.931C81.5007 228.585 88.1186 228.388 93.9573 231.49ZM269.75 232.854C270.731 233.487 270.998 234.005 270.344 234.005C269.691 234.005 268.355 233.487 267.375 232.854C266.395 232.221 266.127 231.703 266.781 231.703C267.434 231.703 268.77 232.221 269.75 232.854ZM273.043 235.397C272.327 235.841 275.703 237.349 280.546 238.751C285.388 240.153 290.02 241.52 290.836 241.791C291.653 242.062 292.313 243.503 292.303 244.993C292.288 247.163 292.06 247.348 291.159 245.922C290.54 244.944 284.537 242.777 277.818 241.108C269.324 238.998 265.492 237.505 265.242 236.209C264.961 234.75 265.915 234.371 269.615 234.467C272.218 234.536 273.761 234.954 273.043 235.397ZM276.228 242.236C288.769 245.793 291.409 247.767 284.973 248.781C282.807 249.121 277.157 250.04 272.416 250.821C267.676 251.604 263.507 251.952 263.152 251.597C262.638 251.084 263.718 238.671 264.261 238.838C264.34 238.863 269.726 240.391 276.228 242.236ZM83.2707 249.148C84.891 249.967 87.4463 250.646 88.949 250.655C92.843 250.68 98.0116 253.618 100.296 257.104C103.639 262.206 102.459 262.477 97.685 257.704C94.3505 254.369 91.718 252.912 87.9369 252.307C82.362 251.415 77.2967 247.401 77.3252 243.896C77.3382 242.266 77.6934 242.458 78.8326 244.71C79.6535 246.33 81.6504 248.327 83.2707 249.148ZM136.621 244.097C141.174 246.451 146.219 252.651 146.154 255.813C146.112 257.888 145.652 257.543 143.805 254.047C140.938 248.621 136.446 245.015 131.363 244.062C123.608 242.607 119.743 247.823 122.465 256.071C123.932 260.515 128.913 263.74 134.307 263.74C135.644 263.74 138.62 265.478 140.919 267.601C149.338 275.373 147.015 285.123 136.744 285.123C131.106 285.123 124.651 282.268 122.499 278.823C121.192 276.729 121.534 276.826 124.622 279.425C131.106 284.88 142.619 284.871 144.354 279.408C146.215 273.544 139.893 267.038 130.871 265.53C123.363 264.276 120.073 260.568 120.073 253.367C120.073 245.47 122.459 242.357 128.514 242.357C131.123 242.357 134.771 243.14 136.621 244.097ZM215.284 263.839C215.056 275.219 214.679 284.727 214.447 284.971C214.214 285.214 213.867 275.725 213.675 263.884C213.447 249.904 213.741 242.494 214.512 242.752C215.265 243.004 215.548 250.729 215.284 263.839ZM288.84 259.07C287.598 264.579 286.537 268.122 286.481 266.944C286.353 264.194 290.025 247.98 290.637 248.593C290.892 248.847 290.083 253.563 288.84 259.07ZM286.726 256.901C285.784 260.979 284.92 264.385 284.806 264.468C284.208 264.91 258.712 269.714 258.501 269.427C258.363 269.239 259.022 265.572 259.964 261.276L261.677 253.466L273.732 251.651C280.362 250.652 286.384 249.756 287.113 249.66C288.041 249.537 287.924 251.712 286.726 256.901ZM208.676 272.946C208.733 285.197 209.357 297.893 210.062 301.158C210.769 304.425 211.257 307.176 211.147 307.274C211.038 307.37 208.141 308.278 204.712 309.29L198.475 311.129V280.901V250.673H203.524H208.573L208.676 272.946ZM83.4085 267.62C87.95 270.986 96.9128 271.768 99.9076 269.06C102.685 266.545 103.086 267.489 100.387 270.189C97.9879 272.588 89.0096 272.64 84.448 270.281C80.0788 268.021 77.2884 264.048 77.3739 260.208C77.4345 257.533 77.596 257.647 78.8588 261.253C79.6393 263.479 81.686 266.344 83.4085 267.62ZM284.409 271.758C284.003 274.863 283.467 277.635 283.219 277.921C282.824 278.376 257.372 283.834 255.307 283.907C254.6 283.932 257.201 272.306 258.093 271.454C258.472 271.092 281.018 266.514 283.686 266.257C284.75 266.154 284.948 267.649 284.409 271.758ZM120.896 272.924C120.594 274.08 120.328 273.422 120.304 271.462C120.28 269.501 120.526 268.556 120.852 269.36C121.177 270.164 121.197 271.768 120.896 272.924ZM66.0435 282.58C86.2857 289.676 121.29 302.036 143.831 310.048L184.814 324.615V352.385C184.814 367.659 184.702 380.155 184.565 380.156C184.428 380.156 172.4 374.878 157.836 368.428C143.274 361.976 120.656 352.068 107.576 346.407C94.4954 340.747 72.311 330.638 58.2769 323.943L32.7603 311.77L30.7825 295.18C28.9198 279.564 28.1987 269.68 28.921 269.68C29.0968 269.68 45.8013 275.485 66.0435 282.58ZM285.98 274.728C285.651 275.546 285.381 274.877 285.381 273.243C285.381 271.61 285.651 270.942 285.98 271.758C286.31 272.576 286.31 273.912 285.98 274.728ZM128.135 294.644L198.564 312.51L204.685 310.693C209.532 309.253 211.001 309.184 211.749 310.363C212.951 312.256 213.02 318.381 211.839 318.395C211.35 318.401 205.256 319.38 198.298 320.571L185.648 322.737L118.708 299.119C81.8904 286.129 53.1035 275.788 54.7369 276.14C56.3703 276.49 89.3992 284.817 128.135 294.644ZM365.118 287.651C368.894 288.398 371.813 289.182 371.603 289.391C371.194 289.799 318.089 299.378 316.231 299.378C315.307 299.378 321.526 281.676 323.668 278.21C324.029 277.626 331.958 279.204 341.288 281.719C350.617 284.234 361.34 286.903 365.118 287.651ZM282.818 283.766C282.818 287.095 282.529 287.243 267.748 291.465C259.46 293.832 252.476 295.566 252.227 295.317C251.979 295.069 252.347 292.742 253.046 290.146L254.317 285.427L265.895 283.027C282.243 279.64 282.818 279.665 282.818 283.766ZM47.6094 299.378C47.6094 308.089 48.0715 313.633 48.7973 313.633C49.4578 313.633 49.9852 310.46 49.9852 306.489V299.343L57.0581 302.914L64.131 306.484L64.5467 314.513C64.776 318.93 65.0255 315.058 65.1015 305.911C65.2452 288.779 64.9316 287.294 63.3659 297.684L62.4584 303.711L56.2218 300.872L49.9852 298.033V291.578C49.9852 288.027 49.4506 285.123 48.7973 285.123C48.0715 285.123 47.6094 290.667 47.6094 299.378ZM281.925 300.501L280.992 305.783L266.759 308.443C246.042 312.315 247.066 312.502 248.994 305.195C249.874 301.86 250.937 298.786 251.359 298.364C251.78 297.941 258.896 295.714 267.174 293.414L282.224 289.233L282.542 292.226C282.717 293.873 282.44 297.597 281.925 300.501ZM215.959 297.876C215.686 299.682 215.455 298.487 215.446 295.22C215.438 291.953 215.661 290.475 215.942 291.936C216.224 293.398 216.231 296.07 215.959 297.876ZM374.158 301.16C373.633 307.04 372.722 320.015 372.133 329.995C371.545 339.974 370.739 348.463 370.345 348.858C369.615 349.586 304.04 361.113 300.483 361.136C298.769 361.148 294.861 354.522 296.021 353.572C296.273 353.366 305.299 351.76 316.079 350.002C340.355 346.045 342.521 345.617 341.826 344.924C341.52 344.617 331.306 346.005 319.129 348.006C306.95 350.008 296.402 351.646 295.688 351.646C294.406 351.646 294.881 341.563 296.226 340.218C296.567 339.877 311.449 337.37 329.299 334.645C347.147 331.92 360.86 329.519 359.77 329.309C358.681 329.098 344.633 330.892 328.555 333.293C312.475 335.695 299.046 337.384 298.711 337.049C298.376 336.714 299.494 333.691 301.197 330.33C302.899 326.969 306.457 319.299 309.103 313.285C311.747 307.269 314.14 302.117 314.419 301.835C314.846 301.403 374.659 290.082 374.998 290.37C375.062 290.424 374.684 295.279 374.158 301.16ZM71.3678 293.17C71.3678 293.764 73.373 294.85 75.8225 295.583L80.2772 296.917L79.8685 314.481C79.644 324.141 79.8174 331.695 80.2522 331.265C80.6882 330.836 81.4366 323.768 81.9165 315.557C82.3952 307.347 83.0759 300.341 83.4287 299.988C83.7815 299.635 86.0814 300.187 88.5392 301.213C96.9081 304.71 94.3386 301.801 85.5088 297.781C74.6844 292.855 71.3678 291.773 71.3678 293.17ZM98.9311 319.869L99.171 337.985L99.822 323.136L100.472 308.287L103.844 318.978C105.699 324.859 107.663 330.136 108.209 330.708C108.754 331.279 111.085 328.073 113.39 323.58L117.58 315.415L117.638 322.07C117.73 332.452 119.11 343.331 120.336 343.331C120.948 343.331 121.17 341.86 120.829 340.064C120.488 338.268 119.859 331.024 119.429 323.968C119 316.911 118.171 311.298 117.589 311.494C117.005 311.69 114.764 315.548 112.608 320.065L108.685 328.279L104.689 315.017C102.49 307.722 100.241 301.753 99.6902 301.753C99.1402 301.753 98.798 309.906 98.9311 319.869ZM219.41 321.605C218.763 322.252 216.264 307.597 216.415 304.032C216.482 302.452 217.288 305.653 218.209 311.145C219.13 316.638 219.67 321.345 219.41 321.605ZM281.62 316.306C281.613 323.527 279.769 339.648 278.844 340.572C278.167 341.249 238.577 347.003 238.071 346.498C237.757 346.184 239.526 338.726 242.002 329.926L246.502 313.924L262.58 310.929C271.424 309.281 279.329 307.878 280.145 307.813C281.208 307.728 281.627 310.139 281.62 316.306ZM129.841 332.936L130.17 349.864L138.21 353.901C142.632 356.121 146.588 357.601 147 357.189C147.412 356.777 144.194 354.775 139.85 352.743L131.952 349.046V332.528C131.952 322.012 131.509 316.009 130.732 316.009C129.937 316.009 129.626 321.928 129.841 332.936ZM216.099 329.967C217.408 335.684 218.823 342.554 219.244 345.234L220.008 350.107L212.508 351.379L205.009 352.652L212.433 352.032C219.816 351.417 219.858 351.43 219.858 354.538C219.858 356.256 219.107 359.459 218.19 361.654C216.678 365.274 215.927 365.729 210.172 366.519C206.679 366.998 202.752 367.87 201.445 368.455C199.396 369.373 199.477 369.446 202.039 368.984C213.508 366.913 216.245 366.871 218.106 368.731C219.256 369.881 221.762 370.561 224.456 370.456C226.905 370.359 229.946 370.883 231.213 371.619C232.482 372.354 232.984 372.973 232.331 372.994C231.678 373.014 221.87 374.635 210.536 376.594C199.202 378.553 189.18 380.156 188.263 380.156C186.88 380.156 186.596 375.432 186.596 352.431V324.706L199.366 322.284C206.389 320.951 212.493 319.797 212.929 319.717C213.363 319.638 214.791 324.25 216.099 329.967ZM274.312 347.544C271.941 351.563 271.924 351.83 273.945 353.308C276.538 355.204 276.878 355.107 254.518 358.909C236.61 361.955 236.224 361.836 236.773 353.428L237.083 348.676L253.714 346.137C262.861 344.74 271.796 343.537 273.571 343.464L276.798 343.331L274.312 347.544ZM65.1062 352.364C64.7118 352.758 63.6867 352.801 62.8302 352.457C61.8822 352.079 62.1638 351.797 63.5477 351.74C64.7998 351.689 65.5006 351.969 65.1062 352.364ZM69.8579 353.552C69.4635 353.946 68.4384 353.989 67.5819 353.645C66.6339 353.266 66.9154 352.985 68.2994 352.928C69.5514 352.877 70.2523 353.157 69.8579 353.552ZM199.983 353.657C201.139 353.959 202.742 353.939 203.546 353.613C204.351 353.288 203.405 353.042 201.445 353.066C199.485 353.089 198.827 353.356 199.983 353.657ZM74.6096 354.739C74.2152 355.134 73.19 355.177 72.3335 354.833C71.3856 354.454 71.6671 354.173 73.051 354.116C74.3031 354.065 75.004 354.345 74.6096 354.739ZM79.3613 355.927C78.9669 356.322 77.9417 356.365 77.0852 356.021C76.1373 355.642 76.4188 355.361 77.8027 355.304C79.0548 355.253 79.7557 355.533 79.3613 355.927ZM381.002 363.228C380.585 367.638 380.24 377.992 380.235 386.235L380.227 401.223L356.766 409.244C343.861 413.656 311.966 424.685 285.886 433.754C259.806 442.823 238.235 450.01 237.95 449.724C237.447 449.222 234.059 396.445 234.5 396.003C234.991 395.514 378.568 355.368 380.102 355.292C381.434 355.227 381.61 356.78 381.002 363.228ZM96.9805 360.118C105.152 362.165 111.618 364.061 111.348 364.331C110.828 364.851 81.8357 357.759 80.9792 356.902C80.055 355.977 82.0246 356.374 96.9805 360.118ZM286.53 359.748L290.279 363.098L268.432 366.733C246.63 370.359 246.579 370.362 243.319 368.054C237.34 363.819 238.955 362.87 257.574 359.674C280.839 355.681 281.981 355.685 286.53 359.748ZM116.187 365.431C115.792 365.825 114.767 365.868 113.911 365.525C112.963 365.146 113.244 364.864 114.628 364.807C115.88 364.756 116.581 365.036 116.187 365.431ZM136.177 370.217C145.658 372.589 153.195 374.751 152.927 375.02C152.407 375.54 118.666 367.266 117.807 366.408C116.869 365.47 118.88 365.887 136.177 370.217ZM67.7874 369.635C74.3613 371.034 79.5062 372.413 79.2211 372.7C78.6747 373.246 53.3161 368.376 52.4596 367.561C51.3774 366.53 56.3928 367.208 67.7874 369.635ZM326.737 384.262C258.317 402.235 255.402 403.028 255.909 403.537C256.658 404.285 370.527 374.796 371.813 373.521C373.083 372.259 366.067 373.93 326.737 384.262ZM96.2963 386.605C98.5961 397.779 99.3409 404.133 97.6351 398.008C96.4685 393.823 88.4192 391.861 85.864 395.138C83.8516 397.718 83.9122 397.515 89.164 383.936C91.2654 378.501 93.1922 374.262 93.4441 374.515C93.6971 374.767 94.9801 380.207 96.2963 386.605ZM64.8425 391.805C63.3386 399.84 55.0707 403.16 50.0315 397.751C46.5866 394.054 47.0178 392.74 50.5257 396.247C53.8602 399.581 56.6898 399.921 60.269 397.414C62.3182 395.979 62.949 393.795 63.7888 385.238C64.7511 375.435 64.8354 375.203 65.1941 381.344C65.4044 384.938 65.2464 389.645 64.8425 391.805ZM157.764 376.122C157.37 376.516 156.344 376.559 155.488 376.216C154.54 375.837 154.822 375.555 156.205 375.498C157.458 375.447 158.158 375.728 157.764 376.122ZM162.516 377.31C162.121 377.704 161.096 377.747 160.24 377.404C159.292 377.025 159.573 376.743 160.957 376.686C162.209 376.635 162.91 376.916 162.516 377.31ZM167.267 378.498C166.873 378.892 165.848 378.935 164.991 378.592C164.043 378.213 164.325 377.931 165.709 377.874C166.961 377.823 167.662 378.104 167.267 378.498ZM90.5467 384.116C89.145 387.273 87.9986 390.28 87.9986 390.798C87.9986 391.668 95.1309 393.62 95.8069 392.935C95.972 392.767 95.4291 389.422 94.6011 385.502L93.0948 378.374L90.5467 384.116ZM172.019 379.686C171.625 380.08 170.6 380.123 169.743 379.78C168.795 379.401 169.077 379.119 170.461 379.062C171.713 379.011 172.413 379.291 172.019 379.686ZM305.456 402.437C273.152 413.293 247.257 422.354 247.912 422.571C248.567 422.789 272.859 414.988 301.896 405.236C360.347 385.602 368.581 382.707 365.972 382.703C364.992 382.701 337.76 391.582 305.456 402.437ZM194.59 385.625C194.195 386.02 193.17 386.063 192.314 385.719C191.366 385.34 191.647 385.059 193.031 385.002C194.283 384.951 194.984 385.231 194.59 385.625ZM156.262 401.614C157.379 408.863 157.979 415.108 157.595 415.492C157.212 415.876 156.89 414.898 156.88 413.319C156.854 409.321 155.784 408.176 150.637 406.643C146.204 405.324 146.133 405.356 143.858 409.661C142.594 412.054 141.537 413.673 141.507 413.259C141.456 412.515 150.682 389.914 151.754 388.156C153.176 385.827 154.39 389.451 156.262 401.614ZM115.219 393.223C115.176 394.398 114.806 394.196 114.133 392.629C112.73 389.364 112.73 387.488 114.133 389.66C114.766 390.64 115.255 392.243 115.219 393.223ZM149.986 396.443C146.511 403.15 146.704 404.668 151.149 405.556C153.213 405.97 155.037 406.169 155.203 406.002C155.368 405.834 154.845 402.489 154.04 398.569L152.578 391.441L149.986 396.443ZM127.079 404.338C124.369 409.985 121.762 414.606 121.285 414.606C120.273 414.606 114.83 396.882 115.605 396.106C115.892 395.819 117.107 398.821 118.306 402.775C119.503 406.731 120.917 410.236 121.447 410.563C121.977 410.891 124.398 407.142 126.827 402.233C129.256 397.324 131.415 393.479 131.625 393.688C131.834 393.898 129.788 398.69 127.079 404.338ZM324.989 412.856C272.978 430.794 264.752 433.761 265.353 434.362C265.611 434.62 271.114 432.914 277.585 430.572C284.055 428.23 306.723 420.417 327.957 413.21C363.666 401.092 372.044 397.999 368.942 398.077C368.289 398.094 348.51 404.745 324.989 412.856ZM251.71 404.726C252.566 405.069 253.591 405.027 253.986 404.632C254.38 404.238 253.679 403.957 252.427 404.008C251.043 404.066 250.762 404.347 251.71 404.726ZM246.958 405.914C247.814 406.257 248.84 406.214 249.234 405.82C249.628 405.426 248.927 405.145 247.675 405.196C246.291 405.253 246.01 405.535 246.958 405.914Z" fill="black"/>
</svg>
